<svg width="244" height="48" viewBox="0 0 244 48" fill="none" xmlns="http://www.w3.org/2000/svg">
<g clip-path="url(#clip0_399_161)">
<path d="M17.6472 0H0V0.152902C1.78257 0.964671 2.69757 3.09417 2.69757 4.91787V33.1074C2.69757 35.387 1.78257 38.1365 0 38.9482V39.1011L18.2581 39.0372C27.0091 39.0372 34.8954 32.7515 34.8954 19.3157C34.8954 7.65621 28.7387 0 17.6472 0ZM24.6519 34.8366C22.4927 37.4748 18.2748 37.6138 17.6165 37.6222H12.8713C10.4806 37.6222 9.25876 35.6956 9.25876 32.5514V6.03267C9.25876 2.99131 10.277 1.41782 12.5645 1.41782H17.5356C22.2361 1.41782 24.5347 5.03186 24.7551 5.39326C26.6018 8.64589 27.5671 13.7917 27.5671 20.4304C27.5671 27.5751 26.5656 32.2011 24.6519 34.8338" fill="#3C3214"/>
<path d="M55.9461 17.1555C60.7163 16.1936 65.1295 13.1606 65.1295 8.00363C65.1295 2.84667 60.3593 0.0166016 51.9876 0.0166016H35.9277V0.169503C37.7549 0.978492 38.6169 2.69655 38.6169 5.02344V34.0108C38.6169 36.3377 37.7549 38.1058 35.9277 38.9148V39.101H52.5985C62.1893 39.101 67.2608 34.6502 67.2608 28.4313C67.2608 21.9093 61.6788 18.2175 55.9461 17.1555ZM45.1028 5.17078C45.1028 2.74937 46.2159 1.38438 48.2886 1.37882H52.6515C56.0493 1.37882 58.334 4.21167 58.334 8.76258C58.334 13.5665 55.8484 16.3965 51.4325 16.3965H45.1056V5.17356L45.1028 5.17078ZM53.1174 37.5832H48.7572C46.3721 37.5832 45.1028 36.2182 45.1028 33.7912V17.9645H51.4297C56.9615 17.9645 60.0552 21.3506 60.0552 27.3693C60.0552 33.3881 57.472 37.5776 53.1146 37.5832" fill="#3C3214"/>
<path d="M67.8994 9.71057H68.1561C69.297 7.79791 70.5635 5.89637 71.8021 4.38403C71.8021 4.38403 72.2652 3.8308 72.4883 3.58616C73.4117 2.66041 75.2668 1.26762 78.076 1.26762H79.3118C80.6089 1.27874 81.2589 1.98764 81.2589 3.49164V34.8031C81.2589 36.4711 80.701 37.7861 78.924 38.9482V39.101H90.0462V38.9482C88.2692 37.7861 87.7113 36.4711 87.7113 34.8031V3.49164C87.7113 1.98764 88.3585 1.27874 89.6557 1.26762H90.8915C93.6979 1.26762 95.5557 2.66319 96.4791 3.58616C96.7023 3.8308 97.1654 4.38403 97.1654 4.38403C98.4039 5.89637 99.6704 7.79791 100.811 9.71057H101.068V0.0166016H67.8994V9.71335V9.71057Z" fill="#3C3214"/>
<path d="M104.502 19.5741C104.502 8.28714 111.613 0.097168 121.94 0.097168C131.16 0.097168 137.06 6.08257 137.952 13.2217H133.001C132.315 9.65213 129.787 4.29779 121.937 4.29779C112.982 4.29779 109.454 12.0152 109.454 19.5741C109.454 27.133 112.982 34.9031 121.937 34.9031C129.837 34.9031 132.683 29.5488 133.001 24.8228H137.952C137.11 33.1156 131.21 39.101 121.94 39.101C111.615 39.101 104.505 30.911 104.505 19.5713" fill="#3C3214"/>
<path d="M139.058 31.4671C139.058 25.326 143.588 23.6441 150.543 22.3848C155.126 21.5452 157.232 21.0198 157.232 18.3954C157.232 16.2965 156.074 14.4589 151.647 14.4589C146.537 14.4589 145.064 15.9823 144.799 19.866H140.374C140.637 14.7202 143.903 10.7837 151.806 10.7837C156.811 10.7837 161.341 12.8826 161.341 19.4463V32.8043C161.341 34.9032 161.656 35.9541 162.711 35.9541C162.87 35.9541 163.026 35.9541 163.341 35.9013V38.8398C162.658 38.9982 162.025 39.1039 161.288 39.1039C158.97 39.1039 157.547 37.7138 157.285 34.4056H157.179C155.441 37.2941 152.386 39.0788 147.909 39.0788C142.483 39.0788 139.06 35.9819 139.06 31.4671M148.33 35.4036C153.388 35.4036 157.232 33.1463 157.232 28.0004V23.7498C156.443 24.5893 153.806 25.2732 150.911 25.8487C145.697 26.8967 143.482 28.1589 143.482 31.2558C143.482 33.8802 144.852 35.4036 148.328 35.4036" fill="#3C3214"/>
<path d="M169.838 34.8532H169.732V47.9972H165.517V11.5455H169.732V14.8537H169.838C171.417 12.8076 173.947 10.8115 178.265 10.8115C185.008 10.8115 190.381 16.113 190.381 24.9341C190.381 33.7551 185.008 39.0566 178.265 39.0566C173.947 39.0566 171.417 37.1662 169.838 34.856M177.844 35.3814C183.376 35.3814 185.956 30.1856 185.956 24.9341C185.956 19.6826 183.376 14.4867 177.844 14.4867C172.839 14.4867 169.732 18.6345 169.732 24.9341C169.732 31.2336 172.839 35.3814 177.844 35.3814Z" fill="#3C3214"/>
<path d="M213.551 31.4534C213.556 25.3123 218.087 23.6332 225.041 22.3794C229.625 21.5426 231.731 21.02 231.734 18.3956C231.734 16.2967 230.579 14.4563 226.152 14.4535C221.041 14.4507 219.565 15.9714 219.3 19.8551H214.876C215.144 14.7065 218.41 10.7728 226.313 10.7783C231.318 10.7811 235.845 12.8856 235.843 19.4465L235.834 32.8045C235.834 34.9034 236.15 35.9543 237.201 35.9543C237.36 35.9543 237.516 35.9543 237.834 35.9015V38.8427C237.148 38.9984 236.515 39.1041 235.779 39.1041C233.46 39.1041 232.04 37.714 231.778 34.4058H231.672C229.931 37.2915 226.874 39.0735 222.399 39.0707C216.974 39.0679 213.551 35.9682 213.554 31.4534M222.832 35.4011C227.889 35.4011 231.734 33.1437 231.734 27.9978V23.7472C230.944 24.5867 228.308 25.2706 225.412 25.8461C220.198 26.8969 217.983 28.1563 217.983 31.2532C217.983 33.8776 219.353 35.4011 222.829 35.4011" fill="#3C3214"/>
<path d="M197.093 2.65771H192.621V7.1141H197.093V2.65771Z" fill="#3C3214"/>
<path d="M196.967 11.6235H192.752V39.1014H196.967V11.6235Z" fill="#3C3214"/>
<path d="M203.09 31.6453V15.2431H199.14V11.5679H203.09V2.64404H207.305V11.5679H212.572V15.2431H207.305V31.8566C207.305 34.6922 207.991 35.4262 210.36 35.4262C211.255 35.4262 211.676 35.3733 212.572 35.2677V38.8372C211.361 39.0485 210.728 39.1014 209.779 39.1014C205.829 39.1014 203.09 37.7364 203.09 31.6453Z" fill="#3C3214"/>
<path d="M243.986 0.0444336H239.771V39.1094H243.986V0.0444336Z" fill="#3C3214"/>
</g>
<defs>
<clipPath id="clip0_399_161">
<rect width="244" height="48" fill="white"/>
</clipPath>
</defs>
</svg>
